<svg width="28" height="32" viewBox="0 0 28 32" fill="none" xmlns="http://www.w3.org/2000/svg">
<g id="akar-icons:facebook-fill" clip-path="url(#clip0_4_66)">
<path id="Vector" fill-rule="evenodd" clip-rule="evenodd" d="M0 16.0893C0 24.044 5.05517 30.6587 11.6667 32V20.444H8.16667V16H11.6667V12.444C11.6667 8.444 13.9218 6.22267 17.1115 6.22267C18.1218 6.22267 19.2115 6.4 20.2218 6.57733V10.6667H18.4333C16.7218 10.6667 16.3333 11.644 16.3333 12.8893V16H20.0667L19.4448 20.444H16.3333V32C22.9448 30.6587 28 24.0453 28 16.0893C28 7.24 21.7 0 14 0C6.3 0 0 7.24 0 16.0893Z" fill="black"/>
</g>
<defs>
<clipPath id="clip0_4_66">
<rect width="28" height="32" fill="white"/>
</clipPath>
</defs>
</svg>
