<svg width="28" height="32" viewBox="0 0 28 32" fill="none" xmlns="http://www.w3.org/2000/svg">
<g id="akar-icons:instagram-fill">
<path id="Vector" fill-rule="evenodd" clip-rule="evenodd" d="M8.70919 1.42134C10.0777 1.34934 10.514 1.33334 14 1.33334C17.486 1.33334 17.9224 1.35068 19.2897 1.42134C20.657 1.49201 21.5904 1.74134 22.407 2.10268C23.2622 2.47201 24.038 3.04934 24.6797 3.79601C25.333 4.52801 25.837 5.41334 26.159 6.39201C26.4764 7.32534 26.6934 8.39201 26.7564 9.95201C26.8194 11.5187 26.8334 12.0173 26.8334 16C26.8334 19.984 26.8182 20.4827 26.7564 22.0467C26.6945 23.6067 26.4764 24.6733 26.159 25.6067C25.837 26.5855 25.3322 27.4723 24.6797 28.2053C24.038 28.952 23.2622 29.528 22.407 29.896C21.5904 30.2587 20.657 30.5067 19.292 30.5787C17.9224 30.6507 17.486 30.6667 14 30.6667C10.514 30.6667 10.0777 30.6493 8.70919 30.5787C7.34419 30.508 6.41085 30.2587 5.59419 29.896C4.73776 29.528 3.96181 28.951 3.32035 28.2053C2.66746 27.4729 2.16222 26.5865 1.83985 25.608C1.52369 24.6747 1.30669 23.608 1.24369 22.048C1.18069 20.4813 1.16669 19.9827 1.16669 16C1.16669 12.016 1.18185 11.5173 1.24369 9.95468C1.30552 8.39201 1.52369 7.32534 1.83985 6.39201C2.1627 5.41345 2.66833 4.52709 3.32152 3.79468C3.96207 3.04868 4.73724 2.47127 5.59302 2.10268C6.40969 1.74134 7.34302 1.49334 8.70802 1.42134H8.70919ZM19.1859 4.06134C17.8325 3.99068 17.4265 3.97601 14 3.97601C10.5735 3.97601 10.1675 3.99068 8.81419 4.06134C7.56235 4.12668 6.88335 4.36534 6.43069 4.56668C5.83219 4.83334 5.40402 5.14934 4.95485 5.66268C4.52907 6.13608 4.2014 6.71239 3.99585 7.34934C3.81969 7.86668 3.61085 8.64268 3.55369 10.0733C3.49185 11.62 3.47902 12.084 3.47902 16C3.47902 19.916 3.49185 20.38 3.55369 21.9267C3.61085 23.3573 3.81969 24.1333 3.99585 24.6507C4.20119 25.2867 4.52902 25.864 4.95485 26.3373C5.36902 26.824 5.87419 27.1987 6.43069 27.4333C6.88335 27.6347 7.56235 27.8733 8.81419 27.9387C10.1675 28.0093 10.5724 28.024 14 28.024C17.4277 28.024 17.8325 28.0093 19.1859 27.9387C20.4377 27.8733 21.1167 27.6347 21.5694 27.4333C22.1679 27.1667 22.596 26.8507 23.0452 26.3373C23.471 25.864 23.7989 25.2867 24.0042 24.6507C24.1804 24.1333 24.3892 23.3573 24.4464 21.9267C24.5082 20.38 24.521 19.916 24.521 16C24.521 12.084 24.5082 11.62 24.4464 10.0733C24.3892 8.64268 24.1804 7.86668 24.0042 7.34934C23.7709 6.66534 23.4944 6.17601 23.0452 5.66268C22.6309 5.17611 22.1267 4.80162 21.5694 4.56668C21.1167 4.36534 20.4377 4.12668 19.1859 4.06134ZM12.3609 20.5213C13.2763 20.9569 14.2956 21.0156 15.2448 20.6876C16.1939 20.3596 17.014 19.6652 17.5649 18.723C18.1158 17.7808 18.3634 16.6492 18.2654 15.5215C18.1674 14.3938 17.7299 13.34 17.0275 12.54C16.5798 12.0286 16.0384 11.6371 15.4424 11.3935C14.8464 11.15 14.2105 11.0605 13.5806 11.1315C12.9507 11.2025 12.3424 11.4322 11.7995 11.8042C11.2566 12.1761 10.7926 12.681 10.4409 13.2825C10.0892 13.884 9.85857 14.5671 9.76562 15.2826C9.67267 15.9982 9.7197 16.7284 9.90332 17.4207C10.0869 18.113 10.4026 18.7502 10.8275 19.2863C11.2525 19.8225 11.7761 20.2443 12.3609 20.5213ZM9.33569 10.6693C9.94822 9.96931 10.6754 9.41401 11.4757 9.03516C12.276 8.6563 13.1338 8.46131 14 8.46131C14.8663 8.46131 15.724 8.6563 16.5243 9.03516C17.3246 9.41401 18.0518 9.96931 18.6644 10.6693C19.2769 11.3694 19.7628 12.2004 20.0943 13.1151C20.4258 14.0297 20.5964 15.01 20.5964 16C20.5964 16.99 20.4258 17.9703 20.0943 18.8849C19.7628 19.7996 19.2769 20.6306 18.6644 21.3307C17.4273 22.7445 15.7495 23.5387 14 23.5387C12.2506 23.5387 10.5727 22.7445 9.33569 21.3307C8.09863 19.9169 7.40366 17.9994 7.40366 16C7.40366 14.0006 8.09863 12.0831 9.33569 10.6693ZM22.0594 9.58401C22.2111 9.42037 22.3327 9.22358 22.4167 9.00531C22.5008 8.78703 22.5456 8.5517 22.5487 8.31325C22.5517 8.0748 22.5129 7.83807 22.4344 7.61709C22.356 7.39611 22.2395 7.19536 22.092 7.02673C21.9444 6.8581 21.7688 6.72502 21.5754 6.63537C21.382 6.54571 21.1749 6.50131 20.9663 6.50479C20.7576 6.50826 20.5517 6.55955 20.3607 6.6556C20.1697 6.75166 19.9975 6.89054 19.8544 7.06401C19.5759 7.40138 19.4234 7.8495 19.4293 8.31325C19.4353 8.77699 19.5991 9.21985 19.886 9.5478C20.173 9.87575 20.5605 10.063 20.9663 10.0697C21.372 10.0765 21.7642 9.90226 22.0594 9.58401Z" fill="black"/>
</g>
</svg>
