<svg width="28" height="32" viewBox="0 0 28 32" fill="none" xmlns="http://www.w3.org/2000/svg">
<g id="akar-icons:twitter-fill">
<path id="Vector" d="M27.5835 6.58266C26.6093 7.07599 25.5628 7.40932 24.4626 7.55999C25.5978 6.78371 26.4471 5.56195 26.852 4.12266C25.7855 4.84664 24.6182 5.35625 23.401 5.62932C22.5824 4.63048 21.4982 3.96843 20.3167 3.74596C19.1352 3.52349 17.9224 3.75305 16.8668 4.39899C15.8111 5.04494 14.9715 6.07114 14.4785 7.31826C13.9854 8.56538 13.8664 9.96366 14.14 11.296C11.9789 11.172 9.86487 10.5301 7.93497 9.41186C6.00506 8.29367 4.30245 6.72421 2.93764 4.80532C2.47097 5.72532 2.20264 6.79199 2.20264 7.92799C2.20212 8.95065 2.42248 9.95765 2.84416 10.8596C3.26585 11.7616 3.87583 12.5307 4.61997 13.0987C3.75696 13.0673 2.91299 12.8008 2.15831 12.3213V12.4013C2.15822 13.8356 2.59234 15.2258 3.38702 16.336C4.1817 17.4461 5.28797 18.2079 6.51814 18.492C5.71755 18.7396 4.8782 18.7761 4.06347 18.5987C4.41055 19.8328 5.08663 20.912 5.99707 21.6852C6.9075 22.4584 8.00671 22.8869 9.14081 22.9107C7.21561 24.6379 4.83801 25.5748 2.39047 25.5707C1.95692 25.5708 1.52373 25.5419 1.09314 25.484C3.57753 27.3096 6.46954 28.2784 9.42314 28.2747C19.4215 28.2747 24.8873 18.8107 24.8873 10.6027C24.8873 10.336 24.8815 10.0667 24.871 9.79999C25.9341 8.92129 26.8519 7.83318 27.5811 6.58666L27.5835 6.58266Z" fill="black"/>
</g>
</svg>
